<?xml version="1.0" standalone="no"?>
<!DOCTYPE svg PUBLIC "-//W3C//DTD SVG 20010904//EN"
 "http://www.w3.org/TR/2001/REC-SVG-20010904/DTD/svg10.dtd">
<svg version="1.0" xmlns="http://www.w3.org/2000/svg"
 width="96.000000pt" height="85.000000pt" viewBox="0 0 96.000000 85.000000"
 preserveAspectRatio="xMidYMid meet">

<g transform="translate(0.000000,85.000000) scale(0.100000,-0.100000)"
fill="#000000" stroke="none">
<path d="M467 766 c4 -21 0 -24 -46 -33 -45 -9 -51 -8 -56 8 -7 21 -22 24 -45
9 -12 -7 -12 -12 -2 -22 18 -18 15 -24 -23 -48 -29 -18 -38 -20 -51 -9 -12 10
-18 9 -32 -5 -16 -16 -16 -18 2 -31 18 -13 18 -15 -3 -43 -33 -47 -27 -68 42
-136 82 -83 150 -110 254 -103 95 7 179 45 237 107 24 25 47 56 50 68 7 21
-14 75 -35 87 -7 5 -5 13 7 26 14 15 15 21 4 34 -12 14 -15 14 -31 -1 -16 -15
-20 -14 -51 8 -18 12 -34 24 -36 25 -2 1 1 10 7 21 9 17 8 22 -10 27 -13 5
-25 1 -32 -10 -10 -12 -22 -14 -55 -9 -36 6 -42 10 -42 30 0 20 -5 24 -29 24
-24 0 -28 -3 -24 -24z m152 -107 c50 -21 121 -87 121 -112 0 -42 -130 -138
-184 -136 -21 0 -21 0 0 9 27 11 64 57 64 80 0 20 -37 70 -51 70 -5 0 -9 -12
-9 -26 0 -18 -13 -38 -40 -63 -41 -38 -52 -58 -24 -47 21 8 34 -1 28 -18 -8
-22 -103 -13 -158 15 -53 26 -116 90 -116 117 0 37 128 132 177 132 14 0 12
-4 -8 -17 -59 -36 -82 -131 -46 -186 13 -20 26 -27 50 -27 35 0 89 29 55 30
-18 0 -58 45 -58 64 1 6 8 -2 16 -17 33 -61 113 -47 114 20 0 51 -74 73 -106
31 -14 -20 -16 -21 -10 -3 4 11 10 34 13 50 12 61 20 68 73 62 27 -3 72 -16
99 -28z m-129 -84 c0 -8 -7 -15 -15 -15 -8 0 -15 7 -15 15 0 8 7 15 15 15 8 0
15 -7 15 -15z"/>
<path d="M230 241 l0 -61 38 1 c30 2 32 3 10 6 -26 4 -28 8 -28 53 0 27 -4 52
-10 55 -6 4 -10 -17 -10 -54z"/>
<path d="M380 240 l0 -60 38 1 c30 2 32 3 10 6 -34 5 -41 43 -8 43 11 0 20 5
20 10 0 6 -9 10 -20 10 -11 0 -20 7 -20 15 0 8 9 15 20 15 11 0 20 5 20 10 0
6 -13 10 -30 10 l-30 0 0 -60z"/>
<path d="M537 293 c-11 -10 -8 -113 2 -113 6 0 11 19 13 43 l3 42 24 -42 c14
-24 28 -43 33 -43 4 0 7 28 6 63 -1 62 -1 62 -7 14 l-6 -47 -28 45 c-31 49
-31 48 -40 38z"/>
<path d="M716 285 c-19 -20 -12 -39 20 -54 32 -14 26 -34 -12 -41 -24 -5 -26
-7 -11 -13 24 -9 57 9 57 32 0 10 -11 26 -25 35 -32 21 -32 36 1 36 14 0 23 4
19 10 -9 15 -31 12 -49 -5z"/>
</g>
</svg>
