<?xml version="1.0" standalone="no"?>
<!DOCTYPE svg PUBLIC "-//W3C//DTD SVG 20010904//EN"
 "http://www.w3.org/TR/2001/REC-SVG-20010904/DTD/svg10.dtd">
<svg version="1.0" xmlns="http://www.w3.org/2000/svg"
 width="67.000000pt" height="62.000000pt" viewBox="0 0 67.000000 62.000000"
 preserveAspectRatio="xMidYMid meet">

<g transform="translate(0.000000,62.000000) scale(0.100000,-0.100000)"
fill="#000000" stroke="none">
<path d="M252 463 c-36 -14 -54 -111 -28 -145 14 -19 62 -24 85 -9 11 7 9 10
-8 16 -32 10 -44 39 -31 83 16 60 14 68 -18 55z"/>
<path d="M364 370 c-1 -16 -8 -36 -18 -45 -18 -19 -19 -24 -7 -44 8 -12 13
-12 36 3 47 31 50 82 7 105 -14 7 -17 4 -18 -19z"/>
</g>
</svg>
